<svg xmlns="http://www.w3.org/2000/svg" width="18" height="18" fill="none" viewBox="0 0 18 18">
    <path fill="#F2F2F2" fill-rule="evenodd" d="M5.316 16.73a.562.562 0 1 0 1.04.425l6.39-15.618a.562.562 0 1 0-1.04-.426L5.315 16.73zM4.308 5.033a.562.562 0 0 1 .34-.152.563.563 0 0 1 .421.984L1.402 9.198l3.667 3.333a.564.564 0 0 1-.761.832L.184 9.613a.565.565 0 0 1-.136-.642.565.565 0 0 1 .136-.189l4.124-3.749zm8.658-.042a.563.563 0 0 1 .534-.077.56.56 0 0 1 .192.119l4.124 3.75a.565.565 0 0 1 0 .83l-4.124 3.75a.563.563 0 0 1-.761-.832l3.667-3.333-3.667-3.333a.563.563 0 0 1 .035-.874z" clip-rule="evenodd"/>
</svg>
