<svg xmlns="http://www.w3.org/2000/svg" width="18" height="18" fill="none" viewBox="0 0 18 18">
    <path fill="#F2F2F2" fill-rule="evenodd" d="M7.409.867c.234.326.234.7-.207 1.222-.686.81-.686 1.596-.244 2.21.11.153.222.26.307.324a.365.365 0 0 0 .523-.091.402.402 0 0 0-.087-.546.793.793 0 0 1-.144-.157c-.235-.327-.235-.7.207-1.222.686-.81.686-1.597.244-2.21a1.51 1.51 0 0 0-.307-.324.365.365 0 0 0-.523.09.402.402 0 0 0 .087.547c.027.02.085.075.144.157zM5.159 1.65c.234.326.234.7-.207 1.222-.686.81-.686 1.596-.244 2.21.11.152.222.26.307.323a.365.365 0 0 0 .523-.09.402.402 0 0 0-.087-.546.793.793 0 0 1-.144-.158c-.234-.326-.234-.7.207-1.221.686-.811.686-1.597.244-2.21a1.51 1.51 0 0 0-.307-.324.365.365 0 0 0-.523.09.402.402 0 0 0 .087.546c.027.02.085.076.144.158zM9.659 1.65c.234.326.234.7-.207 1.222-.686.81-.686 1.596-.244 2.21.11.152.222.26.307.323a.365.365 0 0 0 .523-.09.402.402 0 0 0-.087-.546.793.793 0 0 1-.144-.158c-.235-.326-.235-.7.207-1.221.686-.811.686-1.597.244-2.21a1.51 1.51 0 0 0-.307-.324.365.365 0 0 0-.523.09.402.402 0 0 0 .087.546c.027.02.085.076.144.158zM.75 6.652v3.13C.75 14.047 3.575 18 5.837 18h3.13c2.263 0 5.087-3.954 5.087-8.217v-3.13a.391.391 0 0 0-.391-.392H1.141a.391.391 0 0 0-.391.391zm12.522.392v2.739c0 3.876-2.542 7.434-4.305 7.434h-3.13c-1.763 0-4.304-3.558-4.304-7.434v-2.74h11.739z" clip-rule="evenodd"/>
    <path fill="#F2F2F2" fill-rule="evenodd" d="M14.165 8.927c.13-.2.28-.4.444-.586.651-.737 1.282-.991 1.887-.606.671.426.855 1.769.27 3.191-.74 1.794-2.491 3.385-5.17 4.375a.391.391 0 0 0 .272.734c2.876-1.063 4.795-2.806 5.62-4.81.716-1.736.476-3.485-.572-4.15-1.016-.646-2.018-.242-2.893.747a5.867 5.867 0 0 0-.705.993.391.391 0 0 0 .69.37c.025-.048.079-.139.157-.258z" clip-rule="evenodd"/>
</svg>
