<svg xmlns="http://www.w3.org/2000/svg" width="18" height="18" fill="none" viewBox="0 0 18 18">
    <path fill="#F2F2F2" d="M2.25 3.75h6V3h-6v.75z"/>
    <path fill="#F2F2F2" fill-rule="evenodd" d="M7.116 12.834c-.505-.223-1.126-.355-1.866-.355-.74 0-1.36.132-1.866.355-.315.14-.528.285-.643.394a.375.375 0 0 0 .518.544c.054-.052.195-.149.428-.252.41-.18.928-.29 1.563-.29.635 0 1.153.11 1.563.29.233.103.374.2.428.252a.375.375 0 0 0 .518-.544c-.115-.11-.328-.255-.643-.394zM6.325 15.183a1.813 1.813 0 0 0-1.075-.332c-.425 0-.785.124-1.075.332a1.42 1.42 0 0 0-.365.363.375.375 0 0 0 .63.408.726.726 0 0 1 .171-.161c.167-.12.376-.192.639-.192.262 0 .472.072.639.192a.726.726 0 0 1 .171.16.375.375 0 0 0 .63-.407 1.42 1.42 0 0 0-.365-.363z" clip-rule="evenodd"/>
    <path fill="#F2F2F2" fill-rule="evenodd" d="M7.5 1.87v11.51l-2.248 3.552L3 13.377V1.87C3 1.25 3.5.75 4.13.75h2.24c.626 0 1.13.5 1.13 1.12zM4.13 0a1.87 1.87 0 0 0-1.88 1.87v11.618c0 .07.02.14.058.2l2.622 4.138a.375.375 0 0 0 .634 0l2.628-4.139a.375.375 0 0 0 .058-.201V1.87C8.25.834 7.41 0 6.37 0H4.13z" clip-rule="evenodd"/>
    <path fill="#F2F2F2" d="M3.75 12.75h.75V3h-.75v9.75zM6 12.75h.75V3H6v9.75z"/>
    <path fill="#F2F2F2" fill-rule="evenodd" d="M10.498 0h4.504c.413 0 .748.328.748.717v16.566c0 .396-.34.717-.748.717h-4.504c-.413 0-.748-.328-.748-.717V.717c0-.396.34-.717.748-.717zM15 .75v16.5h-4.5V.75H15z" clip-rule="evenodd"/>
    <path fill="#F2F2F2" d="M15.75 3H13.5v.75h2.25V3zM15.75 5.25H12V6h3.75v-.75zM15.75 7.5H13.5v.75h2.25V7.5zM15.75 9.75H12v.75h3.75v-.75zM15.75 12H13.5v.75h2.25V12zM15.75 14.25H12V15h3.75v-.75z"/>
</svg>
