<svg xmlns="http://www.w3.org/2000/svg" width="23" height="20" fill="none" viewBox="0 0 23 20">
    <path fill="#00FD8D" d="M22.445 19.478l-7.084-3.405L15.308.636a.488.488 0 0 1 .7-.442l6.715 3.23c.17.08.277.252.277.44v15.265a.387.387 0 0 1-.555.35z"/>
    <path fill="#00E470" d="M15.361 16.073l-7.666-3.686L15.075.235a.488.488 0 0 1 .63-.187l6.809 3.275c.26.125.355.448.205.694l-7.358 12.056z"/>
    <path fill="#00C967" d="M15.361 16.073l-7.666-3.686L.668.943C.472.625.812.247 1.15.41l6.545 3.148 7.666 12.516z"/>
    <path fill="#00AD6C" d="M7.14 19.478L.22 16.15a.387.387 0 0 1-.22-.349V.453C0 .177.289-.005.538.115l7.157 3.442v15.572a.387.387 0 0 1-.555.349z"/>
</svg>
