<svg width="1440" height="215" viewBox="0 0 1440 215" fill="none" xmlns="http://www.w3.org/2000/svg">
<rect width="1440" height="216.656" fill="black" fill-opacity="0" transform="translate(0 0.0703125)"/>
<rect width="1440" height="216.656" fill="black" fill-opacity="0" transform="translate(0 0.0703125)"/>
<path d="M1440 0.0703125H0V216.726H1440V0.0703125Z" fill="url(#paint0_linear)"/>
<rect width="1385.29" height="6.4" fill="black" fill-opacity="0" transform="translate(26.2609 143.126)"/>
<path d="M1411.55 143.126H26.2609V149.526H1411.55V143.126Z" fill="white" fill-opacity="0.2"/>
<rect width="153.6" height="28.1672" fill="black" fill-opacity="0" transform="translate(47.2 166.628)"/>
<path fill-rule="evenodd" clip-rule="evenodd" d="M47.2 167.126H58.4V194.326H47.2V167.126ZM61.6 167.126H72.8V194.326H61.6V167.126ZM139.2 179.238V171.926H144.8V191.126H139.2V184.616L125.92 191.656V185.286L114.4 191.686V171.368L125.92 177.752V171.318L139.2 179.238ZM177.871 175.99L186.4 166.628V194.796L177.886 185.43H173.6V175.99H177.871ZM194.4 180.71C194.4 183.594 192.201 186.067 189.025 186.998L188 187.299V174.122L189.025 174.423C192.194 175.352 194.4 177.837 194.4 180.71ZM188.611 190.045C193.236 188.923 196.384 185.24 196.384 180.726C196.384 176.199 193.238 172.514 188.611 171.392L188 171.244V166.962L188.948 167.14C195.783 168.425 200.8 174.089 200.8 180.726C200.8 187.348 195.784 193.011 188.95 194.312L188 194.493V190.193L188.611 190.045Z" fill="white" stroke="black" stroke-opacity="0.15"/>
<rect width="148.8" height="30.4" fill="black" fill-opacity="0" transform="translate(1244 165.526)"/>
<path fill-rule="evenodd" clip-rule="evenodd" d="M1270.41 183.686C1270.14 184.697 1269.73 185.663 1269.21 186.562L1272.03 189.382L1267.84 193.57L1265.02 190.749C1264.12 191.278 1263.16 191.678 1262.16 191.939V195.926H1256.24V191.94C1255.23 191.678 1254.27 191.276 1253.36 190.749L1250.54 193.57L1246.36 189.382L1249.18 186.562C1248.65 185.663 1248.25 184.697 1247.98 183.686H1244V177.766H1247.97C1248.23 176.759 1248.63 175.794 1249.16 174.891L1246.36 172.086L1250.54 167.899L1253.35 170.704C1254.25 170.176 1255.22 169.772 1256.24 169.501V165.526H1262.16V169.503C1263.17 169.774 1264.14 170.178 1265.04 170.704L1267.84 167.899L1272.03 172.086L1269.22 174.891C1269.75 175.794 1270.15 176.759 1270.41 177.766H1274.4V183.686H1270.41ZM1259.2 186.406C1262.33 186.406 1264.88 183.853 1264.88 180.726C1264.88 177.59 1262.33 175.046 1259.2 175.046C1256.06 175.046 1253.52 177.584 1253.52 180.726C1253.52 183.858 1256.06 186.406 1259.2 186.406ZM1300 168.726H1333.6V192.726H1300V168.726ZM1306.4 186.326H1327.2V175.126H1306.4V186.326ZM1362.4 173.526V178.326H1356V167.126H1367.2V173.526H1362.4ZM1386.4 173.526H1381.6V167.126H1392.8V178.326H1386.4V173.526ZM1386.4 187.926V183.126H1392.8V194.326H1381.6V187.926H1386.4ZM1362.4 187.926H1367.2V194.326H1356V183.126H1362.4V187.926Z" fill="white" stroke="black" stroke-opacity="0.15"/>
<defs>
<linearGradient id="paint0_linear" x1="720" y1="0.0703125" x2="720" y2="216.726" gradientUnits="userSpaceOnUse">
<stop stop-color="white" stop-opacity="0"/>
<stop offset="1" stop-opacity="0.56"/>
</linearGradient>
</defs>
</svg>
